<?xml version="1.0" standalone="no"?>
<!DOCTYPE svg PUBLIC "-//W3C//DTD SVG 20010904//EN"
 "http://www.w3.org/TR/2001/REC-SVG-20010904/DTD/svg10.dtd">
<svg version="1.0" xmlns="http://www.w3.org/2000/svg"
 width="32.000000pt" height="32.000000pt" viewBox="0 0 32.000000 32.000000"
 preserveAspectRatio="xMidYMid meet">

<g transform="translate(0.000000,32.000000) scale(0.100000,-0.100000)"
fill="#5c715e" stroke="none">
<path d="M103 281 c-50 -23 -74 -57 -80 -114 -5 -52 21 -104 66 -130 31 -19
31 -19 31 2 0 13 -6 21 -18 21 -9 0 -23 9 -30 20 -15 24 -5 26 19 4 10 -9 23
-13 29 -9 8 5 0 17 -21 35 -32 26 -33 28 -23 75 l9 49 75 -1 75 -1 9 -48 c8
-46 7 -49 -20 -73 -25 -22 -29 -31 -24 -58 l5 -32 32 20 c62 39 80 132 38 195
-16 25 -86 64 -115 64 -8 0 -34 -9 -57 -19z"/>
</g>
</svg>
